<?xml version="1.0" encoding="UTF-8" standalone="no"?>
<!-- Created with Inkscape (http://www.inkscape.org/) -->

<svg
   xmlns:dc="http://purl.org/dc/elements/1.1/"
   xmlns:cc="http://creativecommons.org/ns#"
   xmlns:rdf="http://www.w3.org/1999/02/22-rdf-syntax-ns#"
   xmlns:svg="http://www.w3.org/2000/svg"
   xmlns="http://www.w3.org/2000/svg"
   xmlns:xlink="http://www.w3.org/1999/xlink"
   xmlns:sodipodi="http://sodipodi.sourceforge.net/DTD/sodipodi-0.dtd"
   xmlns:inkscape="http://www.inkscape.org/namespaces/inkscape"
   width="64"
   height="64"
   id="svg3464"
   version="1.1"
   inkscape:version="0.91 r13725"
   viewBox="0 0 64 64"
   sodipodi:docname="gslogo.svg">
  <defs
     id="defs3466" />
  <sodipodi:namedview
     id="base"
     pagecolor="#ffffff"
     bordercolor="#666666"
     borderopacity="1.0"
     inkscape:pageopacity="0.0"
     inkscape:pageshadow="2"
     inkscape:zoom="7.7781745"
     inkscape:cx="65.555096"
     inkscape:cy="26.925089"
     inkscape:current-layer="g3483"
     showgrid="true"
     inkscape:document-units="px"
     inkscape:grid-bbox="true"
     inkscape:window-width="1855"
     inkscape:window-height="1056"
     inkscape:window-x="65"
     inkscape:window-y="24"
     inkscape:window-maximized="1" />
  <metadata
     id="metadata3469">
    <rdf:RDF>
      <cc:Work
         rdf:about="">
        <dc:format>image/svg+xml</dc:format>
        <dc:type
           rdf:resource="http://purl.org/dc/dcmitype/StillImage" />
        <dc:title />
      </cc:Work>
    </rdf:RDF>
  </metadata>
  <g
     id="layer1"
     inkscape:label="Layer 1"
     inkscape:groupmode="layer">
    <g
       id="g3483"
       transform="translate(0.12856485,-0.25712936)">
      <path
         style="fill:#385c75;fill-opacity:1;stroke:none;stroke-opacity:1"
         d="m 35.61613,45.405243 c -0.530542,-0.17104 -2.760217,-1.20909 -2.96974,-1.38259 -0.129263,-0.10704 -0.130451,-0.25811 -0.0047,-0.5914 0.09293,-0.24619 0.207228,-0.44763 0.253996,-0.44763 0.04677,0 0.763008,0.30573 1.591643,0.67941 1.684511,0.75963 2.120354,0.81992 2.689743,0.37204 0.565991,-0.44521 0.666272,-1.19017 0.257996,-1.91659 -0.265992,-0.47327 -0.600421,-0.72254 -1.790951,-1.33489 -1.355337,-0.69712 -1.463886,-0.78636 -1.463886,-1.20352 0,-0.755051 0.464442,-0.64366 3.191809,0.76553 2.274563,1.17522 2.597688,1.30123 3.147747,1.22746 1.318,-0.17674 1.88143,-1.65448 1.08032,-2.833416 -0.273502,-0.402493 -0.939554,-0.851903 -2.6802,-1.808432 -2.571221,-1.412951 -2.866204,-1.63833 -2.745984,-2.098051 0.09674,-0.369924 0.720575,-0.427264 1.184448,-0.108871 0.163971,0.112545 1.768656,0.996727 3.565968,1.964848 3.675473,1.97979 4.062171,2.086138 4.822152,1.326158 0.719648,-0.719647 0.773684,-1.531367 0.154357,-2.318713 -0.165963,-0.210988 -1.510717,-1.048323 -2.988342,-1.860746 -1.477624,-0.812421 -3.105201,-1.707294 -3.616839,-1.988607 -0.511637,-0.281312 -1.010358,-0.608003 -1.108268,-0.725977 -0.26033,-0.313685 -0.04393,-0.833573 0.346968,-0.833573 0.180673,0 2.316781,1.088224 4.746908,2.418274 4.814237,2.634916 5.090101,2.730352 5.906523,2.043379 0.754586,-0.634942 0.747709,-1.649859 -0.01677,-2.47524 -0.809935,-0.874453 -7.325033,-5.399289 -15.030844,-10.439151 l -2.156045,-1.410126 -2.520839,-0.267 c -1.386461,-0.14685 -2.626695,-0.228846 -2.756075,-0.182213 -0.129379,0.04663 -0.74796,0.570525 -1.374623,1.164207 -0.626661,0.593682 -1.473145,1.240992 -1.881074,1.438467 -1.360447,0.658581 -2.878886,0.562753 -3.967833,-0.25041 -0.95329,-0.711861 -0.941658,-0.875209 0.142174,-1.996385 0.532536,-0.550884 1.563013,-1.661238 2.289949,-2.467453 0.726936,-0.806215 1.437333,-1.500661 1.578657,-1.543212 0.262919,-0.07916 8.045964,-1.192047 9.559382,-1.36688 0.782599,-0.09041 1.029337,-0.02518 3.702982,0.978956 5.564168,2.089718 6.347688,2.324696 7.776635,2.332221 1.176009,0.0062 1.383442,-0.04038 2.451626,-0.550463 l 1.166918,-0.557227 0.62583,0.70837 c 0.344207,0.389603 0.828539,1.001748 1.076294,1.360321 0.722579,1.045784 1.88902,3.629812 2.230075,4.940308 0.399402,1.534693 0.708004,3.975912 0.522462,4.132981 -0.07603,0.06436 -0.9356,0.487046 -1.910147,0.939294 -1.125821,0.522448 -1.77337,0.907041 -1.77592,1.054762 -0.0022,0.127871 0.309783,0.494795 0.693315,0.815389 1.193946,0.998014 1.565228,2.373521 0.981853,3.637525 -0.472687,1.024172 -1.369991,1.586992 -2.530139,1.586992 -0.529739,0 -0.506328,-0.03751 -0.75472,1.209137 -0.131625,0.660606 -0.79188,1.494709 -1.44823,1.829557 -0.536246,0.27357 -0.7922,0.30952 -1.641703,0.23056 l -1.00641,-0.0935 -0.171373,0.85333 c -0.191176,0.95194 -0.719087,1.7497 -1.386096,2.09462 -0.256386,0.13259 -0.929489,0.24375 -1.600528,0.26434 l -1.158063,0.0355 -0.178215,0.70302 c -0.249778,0.98532 -0.609407,1.46842 -1.340078,1.80017 -0.66918,0.30383 -1.149368,0.34334 -1.764137,0.14514 z m -6.602588,-0.91125 c -0.454485,-0.18312 -0.700251,-0.70249 -0.606319,-1.28132 0.131516,-0.81045 1.454265,-3.09781 1.978939,-3.42207 0.845267,-0.5224 1.600968,-0.12015 1.640583,0.87327 0.03469,0.87 -1.378958,3.41354 -2.082815,3.74754 -0.272107,0.12913 -0.518469,0.23046 -0.54747,0.22519 -0.029,-0.005 -0.201313,-0.0695 -0.382918,-0.14261 z m -3.90866,-2.0325 c -0.248659,-0.24865 -0.370986,-0.54073 -0.370986,-0.88577 0,-0.68777 2.128904,-5.355791 2.649319,-5.809137 0.547824,-0.477224 1.416052,-0.461328 1.881812,0.03445 0.649446,0.691303 0.52112,1.373848 -0.749345,3.985647 -0.688567,1.41554 -1.296569,2.46124 -1.559838,2.68277 -0.580909,0.4888 -1.357542,0.48546 -1.850962,-0.008 z m -3.200527,-2.27774 c -0.539327,-0.22677 -0.870842,-1.01317 -0.705249,-1.672945 0.05831,-0.232329 0.495436,-1.246335 0.971392,-2.25335 0.918334,-1.94299 1.278871,-2.342363 2.114591,-2.342363 0.690308,0 1.022216,0.238735 1.211671,0.871534 0.159408,0.532442 0.116212,0.679997 -0.764755,2.612342 -0.513538,1.126416 -1.046512,2.197582 -1.184387,2.380362 -0.3542,0.46958 -1.06958,0.64563 -1.643263,0.40442 z m -3.470493,-3.184139 c -0.36945,-0.36945 -0.386984,-0.454773 -0.308014,-1.498925 0.14049,-1.857605 0.850521,-2.945874 1.922005,-2.945874 0.444828,0 1.020775,0.626933 1.134924,1.235392 0.127828,0.681387 -0.573613,2.794347 -1.082588,3.261087 -0.503776,0.461975 -1.173441,0.441205 -1.666327,-0.05168 z m -2.806674,-4.752459 c -1.025938,-0.9319 -1.70448,-1.392674 -3.022843,-2.052705 -0.934975,-0.468091 -1.755118,-0.927664 -1.822541,-1.021274 -0.167914,-0.233137 -0.0091,-2.53179 0.263143,-3.80866 0.641283,-3.007753 2.133383,-5.96926 4.018731,-7.97634 l 0.834161,-0.88802 1.055116,0.30957 c 0.580313,0.170264 1.327172,0.356578 1.659684,0.414032 0.976962,0.168806 1.032191,0.24574 0.566613,0.789297 l -0.41547,0.485059 -1.182925,-0.308556 c -0.650609,-0.169705 -1.303597,-0.270255 -1.451085,-0.223445 -0.427114,0.135561 -1.931286,2.267938 -2.657554,3.767459 -1.077159,2.224004 -1.938378,5.899287 -1.555293,6.637269 0.07843,0.151095 0.770973,0.576393 1.538977,0.945107 1.097029,0.526677 1.680149,0.937592 2.720144,1.916842 1.322694,1.245439 1.32363,1.246855 1.147473,1.737666 -0.09697,0.270167 -0.220658,0.488313 -0.274873,0.484771 -0.05421,-0.0035 -0.69387,-0.547176 -1.421458,-1.208072 z m -9.9372009,-2.030528 -3.249557,-1.722849 -0.04925,-0.576683 c -0.218167,-2.554421 1.446293,-8.690423 3.104657,-11.44526 1.110669,-1.84502 2.717057,-3.793496 3.710936,-4.501201 l 0.41928,-0.298554 1.7727359,1.049144 c 0.975005,0.57703 2.095803,1.235277 2.490662,1.462772 0.394858,0.227495 0.717925,0.461836 0.717925,0.520758 0,0.05892 -0.24408,0.341519 -0.542399,0.627992 -3.023341,2.903289 -5.3900279,8.86329 -5.4113859,13.627433 -0.0063,1.410516 0.03327,1.674111 0.306507,2.040419 0.406264,0.544656 0.746838,0.600306 1.2766439,0.208603 0.518929,-0.38366 0.875842,-0.432148 0.582912,-0.07919 -0.258877,0.311927 -1.2658289,0.821693 -1.6095879,0.814848 -0.148786,-0.003 -1.732821,-0.780667 -3.520076,-1.728233 z m 47.5260079,0.350164 c -0.411134,-0.262132 -0.665884,-0.504719 -0.566112,-0.539085 0.09977,-0.03437 0.37957,0.08403 0.621774,0.263098 0.608258,0.449704 1.098145,0.345596 1.437108,-0.305405 0.389466,-0.747997 0.263258,-3.69307 -0.252605,-5.894544 -0.906578,-3.868872 -2.32259,-6.580025 -4.637094,-8.878369 l -0.876419,-0.8703 2.367194,-1.511421 c 1.301958,-0.831282 2.470695,-1.531104 2.597195,-1.555161 0.1265,-0.02406 0.753169,0.438329 1.392597,1.027522 3.542366,3.264074 5.751895,8.24312 6.102914,13.752577 0.08254,1.295536 0.06404,1.451846 -0.189314,1.59954 -1.547461,0.902097 -6.597037,3.388151 -6.881877,3.388151 -0.202315,0 -0.704228,-0.214471 -1.115361,-0.476603 z m 8.437748,-3.453093 c 0,-0.374077 0.02948,-0.527108 0.0655,-0.34007 0.03603,0.187038 0.03603,0.493101 0,0.68014 -0.03603,0.187038 -0.0655,0.03401 -0.0655,-0.34007 z"
         id="path3485"
         inkscape:connector-curvature="0" />
      <path
         style="fill:none;fill-rule:evenodd;stroke:none;stroke-width:1px;stroke-linecap:butt;stroke-linejoin:miter;stroke-opacity:1"
         d="m 2.086016,44.97175 c 0,0 5.8921318,13.104839 29.19774,13.111265 26.679118,0.0074 31.265809,-14.215096 31.265809,-14.215096"
         id="path4337"
         inkscape:connector-curvature="0"
         sodipodi:nodetypes="csc" />
      <text
         xml:space="preserve"
         style="font-style:normal;font-weight:normal;font-size:7.5px;line-height:125%;font-family:sans-serif;letter-spacing:0px;word-spacing:0px;fill:#000000;fill-opacity:1;stroke:none;stroke-width:1px;stroke-linecap:butt;stroke-linejoin:miter;stroke-opacity:1"
         id="text4365"
         sodipodi:linespacing="125%"
         transform="matrix(1.7241845,0,0,1.7241845,-20.304042,-44.741279)"><textPath
           xlink:href="#path4337"
           id="textPath4369"
           style="font-style:normal;font-variant:normal;font-weight:normal;font-stretch:normal;font-family:Lora;-inkscape-font-specification:Lora">       Project GS</textPath></text>
    </g>
  </g>
</svg>
